<?xml version="1.0" encoding="UTF-8"?>
<svg xmlns="http://www.w3.org/2000/svg" width="100" height="100" viewBox="0 0 100 100">
  <path fill="#1E6C93" d="M50,0 C77.6142375,0 100,22.3857625 100,50 C100,77.6142375 77.6142375,100 50,100 C22.3857625,100 0,77.6142375 0,50 C0,22.3857625 22.3857625,0 50,0 Z M50,10 C27.90861,10 10,27.90861 10,50 C10,72.09139 27.90861,90 50,90 C72.09139,90 90,72.09139 90,50 C90,27.90861 72.09139,10 50,10 Z"/>
  <path fill="#1E6C93" d="M30,30 L70,30 L70,70 L30,70 Z"/>
  <path fill="#FFFFFF" d="M35,35 L65,35 L65,65 L35,65 Z"/>
  <path fill="#1E6C93" d="M40,40 L60,40 L60,60 L40,60 Z"/>
  <path fill="#FFFFFF" d="M45,45 L55,45 L55,55 L45,55 Z"/>
</svg>
